#N canvas 176 118 964 495 10;
#X obj -305 -290 tgl 15 0 empty empty empty 17 7 0 10 -262144 -1 -1
1 1;
#X msg -305 -267 \; pd dsp \$1;
#X obj -145 -330 bng 15 250 50 0 empty empty empty 17 7 0 10 -262144
-1 -1;
#X obj -319 -17 dac~ 1;
#X obj -145 -299 bng 15 250 50 0 empty empty empty 17 7 0 10 -262144
-1 -1;
#X obj -145 -268 bng 15 250 50 0 empty empty empty 17 7 0 10 -262144
-1 -1;
#X obj -145 -203 bng 15 250 50 0 empty empty empty 17 7 0 10 -262144
-1 -1;
#X obj -145 -136 bng 15 250 50 0 empty empty empty 17 7 0 10 -262144
-1 -1;
#X text -130 -205 play loop from beginning;
#X text -129 -168 auto sart looping after recording;
#X text -130 -137 play once;
#X obj -145 -234 bng 15 250 50 0 empty empty empty 17 7 0 10 -262144
-1 -1;
#X text -129 -330 start recording;
#X text -129 -299 stop recording;
#X text -129 -110 direct;
#X obj -145 -108 tgl 15 0 empty empty empty 17 7 0 10 -262144 -1 -1
0 1;
#X obj -319 -50 MonoLooper 1;
#X text -262 -16 Audio Out;
#X obj -145 -167 tgl 15 0 empty empty empty 17 7 0 10 -262144 -1 -1
0 1;
#X obj -305 -314 loadbang;
#X text -130 -267 stop now;
#X text -130 -235 stop at the end of loop;
#X floatatom 436 -142 5 0 0 0 - - -, f 5;
#X floatatom 432 -72 10 0 0 0 - - -, f 10;
#X text 483 -142 bpm;
#X text 514 -73 ms;
#X obj 318 -71 tgl 15 0 empty empty empty 17 7 0 10 -262144 -1 -1 0
1;
#X obj 309 -26 metro 8000;
#X obj 290 -63 bng 15 250 50 0 empty empty empty 17 7 0 10 -262144
-1 -1;
#X floatatom 474 -47 5 0 0 0 - - -, f 5;
#X floatatom 580 -138 5 0 0 0 - - -, f 5;
#X msg 581 -118 60000 \$1;
#X floatatom 581 -65 10 0 0 0 - - -, f 10;
#X text 544 -65 bpm;
#X obj 581 -91 /;
#X obj 392 -112 expr ( 1 / $f1 ) * 60000;
#X obj 392 -298 t b b b;
#X obj 356 -302 bng 15 250 50 0 empty empty empty 17 7 0 10 -262144
-1 -1;
#X obj 404 -234 line~;
#X obj 390 -199 s~ taptempo;
#X text 252 -318 math has to be done first because this is a signal
;
#X msg 379 -271 600 60000;
#X msg 471 -267 100;
#X msg 394 -170 50;
#X text 44 -96 Audio In;
#X obj 48 -73 adc~ 1;
#X text -318 -217 receieved;
#X obj -316 -192 r~ signale;
#X obj 46 54 s~ signale;
#X obj 138 -7 > 37;
#X obj 151 19 vsl 15 128 0 100 0 0 empty empty empty 0 -9 0 10 -262144
-1 -1 0 1;
#X text 181 66 trail and error sets trigger sensitivity for new loop
calibrate trigger based on ppp;
#X obj 48 -51 spigot;
#X obj 118 -5 tgl 15 0 empty empty empty 17 7 0 10 -262144 -1 -1 0
1;
#X obj 109 -50 extra/fiddle~ 2048 1;
#X connect 0 0 1 0;
#X connect 2 0 16 1;
#X connect 4 0 16 2;
#X connect 5 0 16 3;
#X connect 6 0 16 5;
#X connect 7 0 16 7;
#X connect 11 0 16 4;
#X connect 15 0 16 8;
#X connect 16 0 3 0;
#X connect 18 0 16 6;
#X connect 19 0 0 0;
#X connect 22 0 35 0;
#X connect 23 0 27 1;
#X connect 23 0 30 0;
#X connect 26 0 27 0;
#X connect 27 0 28 0;
#X connect 29 0 27 1;
#X connect 30 0 31 0;
#X connect 31 0 34 0;
#X connect 34 0 32 0;
#X connect 35 0 23 0;
#X connect 36 0 41 0;
#X connect 36 2 42 0;
#X connect 37 0 36 0;
#X connect 38 0 39 0;
#X connect 41 0 38 0;
#X connect 42 0 38 0;
#X connect 43 0 39 0;
#X connect 45 0 52 0;
#X connect 45 0 54 0;
#X connect 47 0 16 0;
#X connect 49 0 53 0;
#X connect 50 0 49 1;
#X connect 54 2 49 0;
