#N canvas 692 88 450 300 10;
#X obj 17 97 f;
#X obj 17 127 -;
#X obj 10 47 inlet new_value;
#X obj 10 70 t f f b;
#X obj 17 216 outlet trigger;
#X obj 17 171 > 5;
#X floatatom 131 135 5 0 0 1 Amplitude_Trigger_Sensitivity - -, f
5;
#X text 227 68 higher values decrease sensitivity;
#X obj 17 194 select 1;
#X obj 150 34 loadbang;
#X msg 150 64 4;
#X obj 17 149 abs;
#X obj 17 171;
#X connect 0 0 1 1;
#X connect 1 0 11 0;
#X connect 2 0 3 0;
#X connect 3 0 0 1;
#X connect 3 1 1 0;
#X connect 3 2 0 0;
#X connect 5 0 8 0;
#X connect 6 0 5 1;
#X connect 8 0 4 0;
#X connect 9 0 10 0;
#X connect 10 0 6 0;
#X connect 11 0 5 0;
#X connect 11 0 12 0;
#X coords 0 -1 1 1 280 100 1 100 100;
