#N canvas 10 31 1351 725 10;
#X obj 96 -3 change;
#X text 148 -28 sigmund outputs notes as midi;
#X text 163 -79 need to test different hop sizes appropriate to different
tempi;
#X text 146 0 slows down numeric output by eliminating redundancy;
#X obj 113 21 int;
#X text 153 23 output only integers;
#X obj 109 315 outlet;
#X text 481 -49 analyze freq and amplitude;
#X floatatom 55 403 5 0 0 2 Frequency - -, f 5;
#X obj 113 90 mtof;
#X obj 316 34 change;
#X obj 316 57 int;
#X text 346 212 these values just exist for user feedback;
#X obj 277 315 outlet;
#X obj 295 260 f;
#X obj 512 116 timer;
#X obj 512 170 s between;
#X text 636 73 measures time between detected notes;
#X obj 277 289 f;
#X obj 162 49 change;
#X obj 162 94 select 1;
#X obj 162 73 > -1;
#X text 108 112 further filter noise in messages;
#X obj 807 -52 throw~ clean;
#X obj 509 51 f;
#X obj 546 51 + 1;
#X obj 509 71 mod 2;
#X obj 579 93 select 1;
#X obj 508 92 select 0;
#X obj 112 -108 adc~;
#X obj 112 -85 +~;
#X obj 114 -66 *~;
#X obj 14 -84 r trigger1;
#X obj 11 11 r trigger2;
#X obj 12 33 r trigger3;
#X msg 14 -15 1;
#X msg 12 84 0;
#X obj 11 115 r rset;
#X obj 170 -98 s~ oboe;
#X obj 1016 -55 tgl 15 0 empty empty Play 17 7 0 10 -262144 -1 -1 1
1;
#X obj 950 -19 readsf~;
#X obj 958 8 +~;
#X obj 964 -56 bng 15 250 50 0 empty empty Õpen 17 7 0 10 -262144
-1 -1;
#X msg 856 125 open C:/Users/Jorge/Documents/currently/Huddersfield_Music/PeterOboeVeale_Revisited/Re_revisitedSept2017/PostLydiaDoubleBees44.wav
;
#X obj 112 -43 sigmund~ -hop 100 notes env;
#X obj 122 185 frequency_difference_trigger;
#X obj 295 241 bng 15 250 50 0 empty empty empty 17 7 0 10 -262144
-1 -1;
#X obj 357 268 f;
#X obj 357 298 -;
#X obj 350 241 t f f b;
#X obj 357 320 abs;
#X obj 356 363 select 1;
#X obj 356 388 s off;
#X obj 357 342 < 1;
#X obj 14 -59 bng 15 250 50 0 empty empty empty 17 7 0 10 -262144 -1
-1;
#X obj 12 61 bng 15 250 50 0 empty empty empty 17 7 0 10 -262144 -1
-1;
#X obj 14 -37 delay 3000;
#X obj 225 504 ==;
#X obj 225 526 select 1;
#X msg 225 548 1;
#X msg 281 551 0;
#X obj 282 574 s choke;
#X obj 257 548 bng 15 250 50 0 empty empty empty 17 7 0 10 -262144
-1 -1;
#X obj 295 428 s breathe;
#X text 254 465 compares old and new values of synth output to prevent
hanging;
#X text 424 335 this section does nothing for the moment \, obsolete
;
#X floatatom 148 504 5 0 0 0 - - -, f 5;
#X floatatom 99 504 5 0 0 0 - - -, f 5;
#X obj 165 477 pipe 1600;
#X connect 0 0 4 0;
#X connect 0 0 9 0;
#X connect 4 0 6 0;
#X connect 4 0 19 0;
#X connect 9 0 8 0;
#X connect 9 0 45 0;
#X connect 9 0 46 0;
#X connect 9 0 57 1;
#X connect 9 0 67 0;
#X connect 9 0 68 0;
#X connect 10 0 11 0;
#X connect 11 0 24 0;
#X connect 11 0 14 1;
#X connect 11 0 49 0;
#X connect 14 0 18 1;
#X connect 15 0 16 0;
#X connect 18 0 13 0;
#X connect 19 0 21 0;
#X connect 20 0 18 0;
#X connect 21 0 20 0;
#X connect 24 0 25 0;
#X connect 24 0 26 0;
#X connect 25 0 24 1;
#X connect 26 0 28 0;
#X connect 26 0 27 0;
#X connect 27 0 15 1;
#X connect 28 0 15 0;
#X connect 29 0 30 0;
#X connect 29 1 30 1;
#X connect 30 0 31 0;
#X connect 30 0 38 0;
#X connect 31 0 23 0;
#X connect 31 0 44 0;
#X connect 32 0 54 0;
#X connect 33 0 55 0;
#X connect 34 0 55 0;
#X connect 35 0 31 1;
#X connect 36 0 31 1;
#X connect 36 0 4 1;
#X connect 36 0 11 1;
#X connect 36 0 24 1;
#X connect 37 0 36 0;
#X connect 39 0 40 0;
#X connect 40 0 41 0;
#X connect 40 1 41 1;
#X connect 41 0 31 0;
#X connect 42 0 43 0;
#X connect 43 0 40 0;
#X connect 44 0 0 0;
#X connect 44 1 10 0;
#X connect 46 0 14 0;
#X connect 46 0 63 0;
#X connect 47 0 48 1;
#X connect 48 0 50 0;
#X connect 49 0 47 1;
#X connect 49 1 48 0;
#X connect 49 2 47 0;
#X connect 50 0 53 0;
#X connect 53 0 51 0;
#X connect 54 0 56 0;
#X connect 55 0 36 0;
#X connect 56 0 35 0;
#X connect 57 0 58 0;
#X connect 58 0 59 0;
#X connect 59 0 62 0;
#X connect 60 0 61 0;
#X connect 62 0 60 0;
#X connect 68 0 57 0;
#X connect 68 0 66 0;
#X coords 0 725 1 724 300 140 0;
