#N canvas 730 70 469 563 10;
#X obj -42 84 inlet~;
#X obj 327 45 r trigger2;
#X obj 328 74 t b b b;
#X msg 381 102 0.6;
#X msg 342 101 7000;
#X msg 310 103 0;
#X obj 311 127 line;
#X obj 311 151 s mvt1vol;
#X obj 225 101 r trigger3;
#X msg 225 134 0;
#X obj 162 48 r trigger1;
#X obj -37 238 *~;
#X msg -11 196 0.1;
#X msg 186 135 0.1;
#X obj 48 82 inlet~;
#X obj 53 236 *~;
#X msg 85 199 0.1;
#X obj -37 289 s~ mvt1outR;
#X obj 53 287 s~ mvt1outL;
#X obj 162 69 bng 15 250 50 0 empty empty empty 17 7 0 10 -262144 -1
-1;
#X msg 176 193 0;
#X obj 219 234 r choke;
#X obj 111 165 r breathe;
#X connect 0 0 11 0;
#X connect 1 0 2 0;
#X connect 1 0 20 0;
#X connect 2 0 5 0;
#X connect 2 1 4 0;
#X connect 2 2 3 0;
#X connect 3 0 6 0;
#X connect 4 0 6 1;
#X connect 5 0 6 0;
#X connect 6 0 7 0;
#X connect 8 0 9 0;
#X connect 8 0 20 0;
#X connect 9 0 7 0;
#X connect 10 0 19 0;
#X connect 11 0 17 0;
#X connect 12 0 11 1;
#X connect 13 0 7 0;
#X connect 14 0 15 0;
#X connect 15 0 18 0;
#X connect 16 0 15 1;
#X connect 19 0 13 0;
#X connect 19 0 16 0;
#X connect 19 0 12 0;
#X connect 20 0 15 1;
#X connect 20 0 11 1;
#X connect 21 0 15 1;
#X connect 21 0 11 1;
#X connect 22 0 16 0;
#X connect 22 0 12 0;
#X coords 0 563 1 562 185 100 0;
