#N canvas 143 32 991 641 10;
#X obj 3 2 cnv 15 1000 666 empty empty Everything_Is_Happening_At_The_Same_Time
20 12 0 14 -13330 -66577 0;
#X obj 28 557 mvt2_SUB;
#N canvas 143 61 1036 488 sound_out 0;
#X obj -361 113 r~ mvt2outL;
#X obj -275 114 r~ mvt2outR;
#X obj -189 113 r~ mvt3outL;
#X obj -103 114 r~ mvt3outR;
#X obj -308 343 dac~;
#X obj -204 233 r mvt2vol;
#X obj -204 253 r mvt3vol;
#X obj -203 212 r mvt1vol;
#X obj -308 225 *~;
#X obj -283 259 *~;
#X obj 25 328 *~;
#X obj -17 114 catch~ clean;
#X obj 115 22 loadbang;
#X msg 100 73 0;
#X obj 160 144 vsl 15 128 0 1 0 0 empty empty Synth 0 -9 0 10 -83269
-1 -1 6350 1;
#X obj 126 143 vsl 15 128 0 1 0 0 empty empty Oboe 0 -9 0 10 -86853
-1 -1 0 1;
#X msg 138 73 0.5;
#X obj 291 101 r trigger1;
#X obj 291 127 bng 15 250 50 0 empty empty empty 17 7 0 10 -262144
-1 -1;
#X obj -531 111 r~ mvt1outL;
#X obj -448 112 r~ mvt1outR;
#X obj 289 150 delay 500;
#X connect 0 0 8 0;
#X connect 1 0 9 0;
#X connect 2 0 8 0;
#X connect 3 0 9 0;
#X connect 5 0 8 1;
#X connect 5 0 9 1;
#X connect 6 0 8 1;
#X connect 6 0 9 1;
#X connect 7 0 8 1;
#X connect 7 0 9 1;
#X connect 8 0 4 0;
#X connect 9 0 4 1;
#X connect 10 0 4 0;
#X connect 10 0 4 1;
#X connect 11 0 10 0;
#X connect 12 0 16 0;
#X connect 12 0 13 0;
#X connect 13 0 15 0;
#X connect 14 0 8 1;
#X connect 14 0 9 1;
#X connect 15 0 10 1;
#X connect 16 0 14 0;
#X connect 17 0 18 0;
#X connect 18 0 21 0;
#X connect 19 0 9 0;
#X connect 20 0 8 0;
#X connect 21 0 16 0;
#X coords 0 -1 1 1 100 200 1 100 100;
#X restore 546 25 pd sound_out;
#X obj 335 238 mvt3_Sub;
#X obj 30 474 NewNote;
#X obj 18 26 TriggerNextMovement3;
#X obj 28 455 InputAnalysisNov1Rev;
#X obj 20 271 soundtester;
#N canvas -284 127 1366 684 things 0;
#X obj 33 33 inlet;
#X obj 318 41 inlet;
#X obj 24 58 sequentialmidirepackerNov1rev;
#X obj 21 388 Mvt1_output;
#X obj 192 278 ResynthesizerVanillaRevLEFT;
#X obj 20 306 ResynthesizerVanillaRevRIGHT;
#X obj 21 166 sequentialmidirepackerNov1revLEFT;
#X connect 0 0 2 0;
#X connect 0 0 6 0;
#X connect 1 0 2 1;
#X connect 1 0 6 1;
#X connect 2 0 5 0;
#X connect 4 0 3 1;
#X connect 5 0 3 0;
#X connect 6 0 4 0;
#X restore 29 537 pd things;
#X connect 4 0 8 1;
#X connect 6 0 8 0;
#X connect 6 1 4 0;
