#N canvas 112 -12 1366 681 10;
#X obj 347 59 bng 15 250 50 0 empty empty StopMvt3 17 7 0 10 -262144
-1 -1;
#X obj -547 -22 *~;
#X obj -529 -43 tgl 15 0 empty empty empty 17 7 0 10 -262144 -1 -1
0 1;
#X obj -424 -7 bng 15 250 50 0 empty empty empty 17 7 0 10 -262144
-1 -1;
#X text -432 -19 stop;
#X obj 346 39 bng 15 250 50 0 empty empty StartMvt3Manually 17 7 0
10 -262144 -1 -1;
#N canvas -119 55 1366 688 expand 0;
#X obj 109 152 bng 15 250 50 0 empty empty empty 17 7 0 10 -262144
-1 -1;
#X obj 143 149 bng 15 250 50 0 empty empty empty 17 7 0 10 -262144
-1 -1;
#X obj -434 332 MonoLooper 1;
#X obj 175 147 tgl 15 0 empty empty empty 17 7 0 10 -262144 -1 -1 0
1;
#X text -98 217 Audio In;
#X obj -407 440 line;
#X obj -407 465 select 0;
#X obj -409 366 t b b b b;
#X obj -403 403 int;
#X msg -367 403 1;
#X msg -444 404 0;
#X obj 108 375 line;
#X obj 114 316 t b b b b;
#X obj 208 111 bng 15 250 50 0 empty empty empty 17 7 0 10 -262144
-1 -1;
#X obj -306 354 t b b b b;
#X text -290 301 range should be smth like 50-900;
#X obj -34 200 +~;
#X obj -302 414 random;
#X text 144 294 set start of piece;
#X obj 223 146 bng 15 250 50 0 empty empty empty 17 7 0 10 -262144
-1 -1;
#X obj 250 144 bng 15 250 50 0 empty empty empty 17 7 0 10 -262144
-1 -1;
#X obj 543 76 bng 15 250 50 0 empty empty empty 17 7 0 10 -262144 -1
-1;
#X text 430 299 Audio Out;
#X obj 280 147 tgl 15 0 empty empty empty 17 7 0 10 -262144 -1 -1 0
1;
#X obj 427 442 line;
#X obj 427 467 select 0;
#X obj 425 368 t b b b b;
#X obj 431 405 int;
#X msg 467 405 1;
#X msg 390 406 0;
#X obj 584 359 t b b b b;
#X obj 534 413 random;
#X obj 422 346 MonoLooper 2;
#X obj -302 388 + 10;
#X obj 534 390 + 10;
#X text 108 131 strt;
#X text 141 131 stp;
#X text 168 130 auto;
#X text 210 129 strt;
#X text 244 128 stp;
#X text 275 128 auto;
#X text 580 89 stop now;
#X obj 220 81 inlet;
#X obj -460 559 outlet~;
#X obj 377 588 outlet~;
#X obj -12 41 inlet~;
#X obj 544 36 inlet;
#X text 225 112 begin;
#X obj 69 13 inlet;
#X msg 179 345 1;
#X text 217 352 5 min;
#X obj 121 538 line;
#X msg 67 511 0;
#X msg 171 507 7;
#X obj 121 562 / 10;
#X obj 102 483 t b b b;
#X obj 86 620 outlet;
#X text 194 540 dynamics;
#X text -333 431 +10 scales output diff values get faster/slower rates
;
#X text 114 59 initial volume;
#X msg 279 99 1;
#X obj -247 413 sqrt;
#X obj 587 419 sqrt;
#X obj 106 420 int;
#X msg -210 476 20;
#X msg -211 502 30;
#X msg -208 532 50;
#X msg -213 559 80;
#X obj -170 477 select 40000;
#X text -68 477 0'40;
#X text -67 506 1'40;
#X text -67 535 3'00;
#X text -68 564 4'40;
#X obj -170 506 select 10000;
#X obj -169 535 select 180000;
#X obj -169 564 select 244000;
#X msg 75 53 0.9;
#X obj -135 382 line;
#X obj -126 322 t b b b b;
#X msg -61 351 1;
#X obj -136 409 int;
#X obj 264 505 s elation;
#X msg 281 482 0;
#X msg -181 354 300000;
#X msg -123 353 300000;
#X msg 117 347 300000;
#X msg 74 352 8005;
#X msg 114 509 7000;
#X obj 113 448 select 7996;
#X obj 287 459 select 7996;
#X connect 1 0 2 2;
#X connect 2 0 43 0;
#X connect 3 0 2 6;
#X connect 5 0 6 0;
#X connect 6 0 1 0;
#X connect 6 0 2 2;
#X connect 7 1 10 0;
#X connect 7 2 8 0;
#X connect 7 3 9 0;
#X connect 8 0 5 1;
#X connect 9 0 5 0;
#X connect 10 0 5 0;
#X connect 11 0 62 0;
#X connect 11 0 63 0;
#X connect 11 0 61 0;
#X connect 12 1 86 0;
#X connect 12 2 85 0;
#X connect 12 3 49 0;
#X connect 13 0 12 0;
#X connect 13 0 78 0;
#X connect 14 0 7 0;
#X connect 14 1 17 0;
#X connect 14 3 0 0;
#X connect 14 3 2 1;
#X connect 16 0 2 0;
#X connect 16 0 32 0;
#X connect 17 0 33 0;
#X connect 19 0 32 5;
#X connect 20 0 32 2;
#X connect 21 0 32 3;
#X connect 21 0 2 3;
#X connect 23 0 32 6;
#X connect 24 0 25 0;
#X connect 25 0 20 0;
#X connect 25 0 32 2;
#X connect 26 1 29 0;
#X connect 26 2 27 0;
#X connect 26 3 28 0;
#X connect 27 0 24 1;
#X connect 28 0 24 0;
#X connect 29 0 24 0;
#X connect 30 0 26 0;
#X connect 30 1 31 0;
#X connect 30 3 19 0;
#X connect 30 3 32 1;
#X connect 31 0 34 0;
#X connect 32 0 44 0;
#X connect 33 0 8 1;
#X connect 34 0 27 1;
#X connect 42 0 13 0;
#X connect 42 0 60 0;
#X connect 45 0 16 0;
#X connect 46 0 21 0;
#X connect 48 0 14 0;
#X connect 48 0 30 0;
#X connect 48 0 76 0;
#X connect 49 0 11 0;
#X connect 51 0 54 0;
#X connect 52 0 51 0;
#X connect 53 0 51 0;
#X connect 54 0 56 0;
#X connect 55 0 52 0;
#X connect 55 1 87 0;
#X connect 55 2 53 0;
#X connect 60 0 3 0;
#X connect 60 0 23 0;
#X connect 61 0 17 1;
#X connect 62 0 31 1;
#X connect 63 0 88 0;
#X connect 63 0 89 0;
#X connect 64 0 33 1;
#X connect 64 0 34 1;
#X connect 65 0 33 1;
#X connect 65 0 34 1;
#X connect 66 0 33 1;
#X connect 66 0 34 1;
#X connect 67 0 33 1;
#X connect 67 0 34 1;
#X connect 68 0 64 0;
#X connect 73 0 65 0;
#X connect 74 0 66 0;
#X connect 75 0 67 0;
#X connect 76 0 56 0;
#X connect 77 0 80 0;
#X connect 78 1 83 0;
#X connect 78 2 84 0;
#X connect 78 3 79 0;
#X connect 79 0 77 0;
#X connect 80 0 68 0;
#X connect 80 0 73 0;
#X connect 80 0 74 0;
#X connect 80 0 75 0;
#X connect 82 0 81 0;
#X connect 83 0 77 0;
#X connect 84 0 77 1;
#X connect 85 0 11 1;
#X connect 86 0 11 0;
#X connect 87 0 51 1;
#X connect 88 0 55 0;
#X connect 89 0 82 0;
#X restore -547 2 pd expand;
#X floatatom 121 73 5 0 0 1 Manual_Loop_Volume - -, f 5;
#X msg -455 -59 0;
#X msg -480 -39 1;
#X obj 121 123 bng 300 250 50 0 empty empty Mvt3_METRONOME 17 15 0
30 -33289 -162280 -262144;
#X obj -175 69 line;
#X obj -180 -6 t b b b;
#X msg -178 32 300000;
#X obj -175 103 f;
#X msg -123 32 666;
#X obj -173 135 metro 666;
#X obj -265 -40 t b b;
#X msg -300 8 1;
#X obj -507 -134 bonk~;
#X obj -507 -101 spigot;
#X obj -458 -102 tgl 15 0 empty empty empty 17 7 0 10 -262144 -1 -1
0 1;
#X obj -436 -102 r elation;
#X obj -548 40 s~ mvt3outL;
#X obj -462 41 s~ mvt3outR;
#X obj 85 -128 r trigger1;
#X obj 85 -106 r trigger2;
#X obj 88 -79 r trigger3;
#X obj -547 -111 *~;
#X msg -89 -159 0;
#X msg -87 -139 1;
#X obj 229 -112 r rset;
#X msg -174 159 666;
#X msg -140 158 0;
#X obj -548 73 s mvt3vol;
#X obj -505 -80 throw~ clean;
#X obj -547 -160 r~ oboe;
#X text -87 -9 90 to 70;
#X msg -220 33 857;
#X obj 404 -129 tgl 15 0 empty empty Play 17 7 0 10 -262144 -1 -1 0
1;
#X obj 338 -93 readsf~;
#X obj 346 -66 +~;
#X obj 352 -130 bng 15 250 50 0 empty empty Õpen 17 7 0 10 -262144
-1 -1;
#X obj 164 -128 bng 15 250 50 0 empty empty empty 17 7 0 10 -262144
-1 -1;
#X obj 163 -103 bng 15 250 50 0 empty empty empty 17 7 0 10 -262144
-1 -1;
#X obj 166 -80 bng 15 250 50 0 empty empty empty 17 7 0 10 -262144
-1 -1;
#X obj 235 -35 delay 3000;
#X msg 458 -156 open C:/Users/Jorge/Documents/currently/Huddersfield_Music/PeterOboeVeale_Revisited/October2017_veale/Nov5_Final/Mvt3_Nov5.wav
;
#X obj 41 603 noteout;
#X obj 61 545 makenote 69 69;
#X msg 65 503 69;
#X connect 0 0 3 0;
#X connect 0 0 29 0;
#X connect 1 0 6 0;
#X connect 2 0 1 1;
#X connect 3 0 6 3;
#X connect 3 0 8 0;
#X connect 5 0 9 0;
#X connect 5 0 6 2;
#X connect 5 0 17 0;
#X connect 5 0 30 0;
#X connect 6 0 23 0;
#X connect 6 1 34 0;
#X connect 6 2 24 0;
#X connect 7 0 34 0;
#X connect 8 0 2 0;
#X connect 9 0 2 0;
#X connect 10 0 14 0;
#X connect 10 0 50 0;
#X connect 11 0 14 1;
#X connect 12 0 38 0;
#X connect 12 1 13 0;
#X connect 12 2 15 0;
#X connect 13 0 11 1;
#X connect 14 0 16 1;
#X connect 15 0 11 0;
#X connect 16 0 10 0;
#X connect 17 0 12 0;
#X connect 17 1 18 0;
#X connect 18 0 16 0;
#X connect 19 0 20 0;
#X connect 20 0 6 1;
#X connect 21 0 20 1;
#X connect 22 0 21 0;
#X connect 22 0 16 0;
#X connect 25 0 43 0;
#X connect 26 0 44 0;
#X connect 27 0 45 0;
#X connect 27 0 46 0;
#X connect 28 0 19 0;
#X connect 28 0 1 0;
#X connect 28 0 35 0;
#X connect 29 0 28 1;
#X connect 29 0 11 0;
#X connect 29 0 34 0;
#X connect 30 0 28 1;
#X connect 30 0 21 0;
#X connect 31 0 29 0;
#X connect 31 0 32 0;
#X connect 31 0 33 0;
#X connect 31 0 3 0;
#X connect 32 0 16 1;
#X connect 33 0 16 0;
#X connect 36 0 28 0;
#X connect 38 0 11 0;
#X connect 39 0 40 0;
#X connect 40 0 41 0;
#X connect 40 1 41 1;
#X connect 41 0 28 0;
#X connect 42 0 47 0;
#X connect 43 0 29 0;
#X connect 44 0 29 0;
#X connect 46 0 5 0;
#X connect 47 0 40 0;
#X connect 49 0 48 0;
#X connect 49 1 48 1;
#X connect 50 0 49 0;
#X coords 0 -1 1 1 360 340 1 100 100;
