#N canvas 75 50 1366 684 10;
#X obj 106 153 + 1;
#X msg 56 175 12;
#X obj 56 197 *;
#X obj 88 174 f;
#X obj 56 153 t b b;
#X obj 20 240 +;
#X obj 38 217 f;
#X obj 6 191 t b b;
#X obj 5 218 f;
#X obj 20 263 - 12;
#X obj 33 83 t b b b;
#X obj 144 171 hradio 15 1 0 5 empty empty octaves 0 -8 0 10 -4160
-1 -1 1;
#X obj 179 49 f;
#X obj 210 49 + 1;
#X text 326 46 move forward one step in sequence;
#X obj 179 72 mod 5;
#X text 374 81 contrain sequence;
#X text 60 264 scale result down one octave;
#X text 63 242 add input f from oboe to pitch shift-factor;
#X obj -58 90 inlet pitch;
#X obj 33 41 inlet calculate;
#X text 359 162 this gui is displayed to provide feedback to user;
#X obj 148 135 bng 15 250 50 0 empty empty I_Am_Receiving 17 7 0 10
-83269 -1 -1;
#X obj 19 565 outlet;
#X obj 319 446 line;
#X obj 319 339 f;
#X obj 371 395 f;
#X obj 148 318 f;
#X obj 179 318 + 1;
#X obj 148 342 mod 9;
#X obj 148 364 + 1;
#X obj 148 386 select 9;
#X obj 215 386 random 9;
#X obj 215 409 + 1;
#X msg 148 439 1;
#X obj 66 423 select 1;
#X msg 66 448 0;
#X msg 60 350 1;
#X obj 180 469 select 1;
#X msg 180 494 0;
#X obj 20 375 spigot;
#X obj 129 463 spigot;
#X obj 60 331 bng 15 250 50 0 empty empty empty 17 7 0 10 -262144 -1
-1;
#X obj 756 151 random 5;
#X obj 756 175 + 1;
#X text 189 355 random gliss with max period of 9 events;
#X obj 148 569 * 100;
#X text 221 601 indexes chebychev polynomials in synth stage by factor
of 100 each new event \, cycling over a period of 9 events;
#X text 853 183 randomly resets harmonic table in synthesis stage producing
richer or thinner result;
#X obj 337 292 t f f b b b;
#X obj 411 372 r between;
#X obj 148 600 s indexL;
#X obj 756 197 s chebL;
#X obj 265 8 loadbang;
#X obj 266 34 random 4;
#X connect 0 0 3 1;
#X connect 1 0 2 0;
#X connect 2 0 6 1;
#X connect 3 0 2 1;
#X connect 4 0 1 0;
#X connect 4 1 3 0;
#X connect 5 0 9 0;
#X connect 6 0 5 1;
#X connect 7 0 8 0;
#X connect 7 1 6 0;
#X connect 8 0 5 0;
#X connect 9 0 40 0;
#X connect 10 0 7 0;
#X connect 10 1 4 0;
#X connect 10 2 12 0;
#X connect 11 0 0 0;
#X connect 12 0 13 0;
#X connect 12 0 15 0;
#X connect 13 0 12 1;
#X connect 15 0 11 0;
#X connect 19 0 8 1;
#X connect 19 0 49 0;
#X connect 20 0 10 0;
#X connect 20 0 22 0;
#X connect 22 0 27 0;
#X connect 22 0 43 0;
#X connect 24 0 41 0;
#X connect 25 0 24 0;
#X connect 26 0 24 1;
#X connect 27 0 28 0;
#X connect 27 0 29 0;
#X connect 28 0 27 1;
#X connect 29 0 30 0;
#X connect 30 0 31 0;
#X connect 30 0 46 0;
#X connect 31 0 32 0;
#X connect 31 0 34 0;
#X connect 31 1 42 0;
#X connect 32 0 33 0;
#X connect 33 0 31 1;
#X connect 34 0 38 0;
#X connect 34 0 41 1;
#X connect 35 0 36 0;
#X connect 36 0 41 1;
#X connect 37 0 35 0;
#X connect 37 0 40 1;
#X connect 38 0 39 0;
#X connect 39 0 40 1;
#X connect 40 0 23 0;
#X connect 41 0 23 0;
#X connect 42 0 37 0;
#X connect 43 0 44 0;
#X connect 44 0 52 0;
#X connect 46 0 51 0;
#X connect 49 0 25 1;
#X connect 49 1 24 0;
#X connect 49 2 26 0;
#X connect 49 3 25 0;
#X connect 50 0 26 1;
#X connect 53 0 54 0;
#X connect 54 0 11 0;
#X coords 0 -1 1 1 185 100 1 100 100;
