#N canvas 710 100 563 479 10;
#X obj 128 155 bng 15 250 50 0 empty empty 3_seconds_of_noise_from_each_speaker
17 7 0 10 -262144 -1 -1;
#X obj 192 298 cyclone/pink~;
#X obj 110 414 *~;
#X msg 128 339 0.3;
#X obj 152 269 delay 3000;
#X obj 193 413 *~;
#X msg 212 333 0.3;
#X msg 84 358 0;
#X obj 110 462 dac~ 1 2;
#X obj 233 368 delay 3000;
#X msg 233 390 0;
#X obj 287 17 adc~ 1 2;
#X obj 346 72 int;
#X obj 346 46 env~ 8192;
#X obj 270 65 int;
#X obj 270 45 env~ 8192;
#X floatatom 264 123 5 0 0 0 RMS_Amplitude_Input1 - -, f 5;
#X floatatom 340 140 5 0 0 0 RMS_Amplitude_Input2 - -, f 5;
#X obj 127 187 bng 15 250 50 0 empty empty Midi_is_being_recieved_when_lit
17 7 0 10 -262144 -1 -1;
#X floatatom 262 205 5 0 0 0 control/note_number - -, f 5;
#X obj 458 3 notein;
#X obj 512 1 ctlin;
#X connect 0 0 3 0;
#X connect 0 0 4 0;
#X connect 1 0 2 0;
#X connect 1 0 5 0;
#X connect 2 0 8 0;
#X connect 3 0 2 1;
#X connect 4 0 6 0;
#X connect 4 0 7 0;
#X connect 4 0 9 0;
#X connect 5 0 8 1;
#X connect 6 0 5 1;
#X connect 7 0 2 1;
#X connect 9 0 10 0;
#X connect 10 0 5 1;
#X connect 11 0 15 0;
#X connect 11 1 13 0;
#X connect 12 0 17 0;
#X connect 13 0 12 0;
#X connect 14 0 16 0;
#X connect 15 0 14 0;
#X connect 20 0 18 0;
#X connect 20 0 19 0;
#X connect 21 0 18 0;
#X connect 21 0 19 0;
#X coords 0 -1 1 1 300 130 1 100 100;
